<mxfile host="app.diagrams.net" agent="Mozilla/5.0 (Windows NT 10.0; Win64; x64; rv:130.0) Gecko/20100101 Firefox/130.0" version="24.7.17">
  <diagram name="Page-1" id="KvTBJP_3cAkJYj7o228M">
    <mxGraphModel dx="1434" dy="734" grid="1" gridSize="10" guides="1" tooltips="1" connect="1" arrows="1" fold="1" page="1" pageScale="1" pageWidth="827" pageHeight="1169" math="0" shadow="0">
      <root>
        <mxCell id="0" />
        <mxCell id="1" parent="0" />
        <mxCell id="QJIaIxEei0nV1tdBVm6X-1" value="" style="whiteSpace=wrap;html=1;aspect=fixed;" vertex="1" parent="1">
          <mxGeometry x="60" y="70" width="1080" height="1080" as="geometry" />
        </mxCell>
        <mxCell id="QJIaIxEei0nV1tdBVm6X-16" style="edgeStyle=orthogonalEdgeStyle;rounded=0;orthogonalLoop=1;jettySize=auto;html=1;" edge="1" parent="1" source="QJIaIxEei0nV1tdBVm6X-2" target="QJIaIxEei0nV1tdBVm6X-3">
          <mxGeometry relative="1" as="geometry" />
        </mxCell>
        <mxCell id="QJIaIxEei0nV1tdBVm6X-2" value="" style="ellipse;html=1;shape=endState;fillColor=#000000;strokeColor=#ff0000;" vertex="1" parent="1">
          <mxGeometry x="455" y="110" width="30" height="30" as="geometry" />
        </mxCell>
        <mxCell id="QJIaIxEei0nV1tdBVm6X-15" style="edgeStyle=orthogonalEdgeStyle;rounded=0;orthogonalLoop=1;jettySize=auto;html=1;entryX=0.5;entryY=0;entryDx=0;entryDy=0;" edge="1" parent="1" source="QJIaIxEei0nV1tdBVm6X-3" target="QJIaIxEei0nV1tdBVm6X-4">
          <mxGeometry relative="1" as="geometry" />
        </mxCell>
        <mxCell id="QJIaIxEei0nV1tdBVm6X-3" value="Start" style="html=1;whiteSpace=wrap;" vertex="1" parent="1">
          <mxGeometry x="415" y="220" width="110" height="50" as="geometry" />
        </mxCell>
        <mxCell id="QJIaIxEei0nV1tdBVm6X-14" style="edgeStyle=orthogonalEdgeStyle;rounded=0;orthogonalLoop=1;jettySize=auto;html=1;entryX=0.5;entryY=0;entryDx=0;entryDy=0;" edge="1" parent="1" source="QJIaIxEei0nV1tdBVm6X-4" target="QJIaIxEei0nV1tdBVm6X-5">
          <mxGeometry relative="1" as="geometry" />
        </mxCell>
        <mxCell id="QJIaIxEei0nV1tdBVm6X-4" value="Level" style="html=1;whiteSpace=wrap;" vertex="1" parent="1">
          <mxGeometry x="415" y="310" width="110" height="50" as="geometry" />
        </mxCell>
        <mxCell id="QJIaIxEei0nV1tdBVm6X-13" style="edgeStyle=orthogonalEdgeStyle;rounded=0;orthogonalLoop=1;jettySize=auto;html=1;entryX=0.5;entryY=0;entryDx=0;entryDy=0;" edge="1" parent="1" source="QJIaIxEei0nV1tdBVm6X-5" target="QJIaIxEei0nV1tdBVm6X-6">
          <mxGeometry relative="1" as="geometry" />
        </mxCell>
        <mxCell id="QJIaIxEei0nV1tdBVm6X-5" value="generate board" style="html=1;whiteSpace=wrap;" vertex="1" parent="1">
          <mxGeometry x="415" y="400" width="110" height="50" as="geometry" />
        </mxCell>
        <mxCell id="QJIaIxEei0nV1tdBVm6X-6" value="Are all squared without bomb revealed" style="rhombus;whiteSpace=wrap;html=1;" vertex="1" parent="1">
          <mxGeometry x="402.5" y="500" width="135" height="140" as="geometry" />
        </mxCell>
        <mxCell id="QJIaIxEei0nV1tdBVm6X-7" value="" style="ellipse;html=1;shape=endState;fillColor=#000000;strokeColor=#ff0000;" vertex="1" parent="1">
          <mxGeometry x="760" y="555" width="30" height="30" as="geometry" />
        </mxCell>
        <mxCell id="QJIaIxEei0nV1tdBVm6X-8" value="" style="endArrow=classic;html=1;rounded=0;entryX=0.233;entryY=0.5;entryDx=0;entryDy=0;exitX=1;exitY=0.5;exitDx=0;exitDy=0;entryPerimeter=0;" edge="1" parent="1" source="QJIaIxEei0nV1tdBVm6X-6" target="QJIaIxEei0nV1tdBVm6X-7">
          <mxGeometry width="50" height="50" relative="1" as="geometry">
            <mxPoint x="390" y="590" as="sourcePoint" />
            <mxPoint x="440" y="540" as="targetPoint" />
          </mxGeometry>
        </mxCell>
        <mxCell id="QJIaIxEei0nV1tdBVm6X-9" value="yes" style="text;html=1;align=center;verticalAlign=middle;whiteSpace=wrap;rounded=0;" vertex="1" parent="1">
          <mxGeometry x="600" y="540" width="60" height="30" as="geometry" />
        </mxCell>
        <mxCell id="QJIaIxEei0nV1tdBVm6X-10" value="no" style="text;html=1;align=center;verticalAlign=middle;whiteSpace=wrap;rounded=0;rotation=90;" vertex="1" parent="1">
          <mxGeometry x="490" y="670" width="60" height="30" as="geometry" />
        </mxCell>
      </root>
    </mxGraphModel>
  </diagram>
</mxfile>
